HIERARCHY
ROOT Root
{
  OFFSET 0.0 0.0 0.0
  CHANNELS 6 Xposition Yposition Zposition Zrotation Yrotation Xrotation
  JOINT Hips
  {
    OFFSET 0.0 100.0 0.0
    CHANNELS 6 Xposition Yposition Zposition Zrotation Yrotation Xrotation
    JOINT Spine1
    {
      OFFSET -0.013727 5.003763 -0.053727
      CHANNELS 3 Zrotation Yrotation Xrotation
      JOINT Spine2
      {
        OFFSET -0.0 7.125301 -0.029825
        CHANNELS 3 Zrotation Yrotation Xrotation
        JOINT Chest
        {
          OFFSET -1e-06 7.550063 -0.815971
          CHANNELS 3 Zrotation Yrotation Xrotation
          JOINT Neck1
          {
            OFFSET -0.181677 26.311295 -0.553348
            CHANNELS 3 Zrotation Yrotation Xrotation
            JOINT Neck2
            {
              OFFSET -3e-06 7.709397 2.302585
              CHANNELS 3 Zrotation Yrotation Xrotation
              JOINT Head
              {
                OFFSET -5e-06 6.128916 1.953709
                CHANNELS 3 Zrotation Yrotation Xrotation
                JOINT HeadEnd
                {
                  OFFSET 0.003598 16.065403 -1.835379
                  CHANNELS 3 Zrotation Yrotation Xrotation
                }
                JOINT Jaw
                {
                  OFFSET 0.002637 0.475592 3.094941
                  CHANNELS 3 Zrotation Yrotation Xrotation
                }
                JOINT LeftEye
                {
                  OFFSET 3.206381 5.380205 7.586883
                  CHANNELS 3 Zrotation Yrotation Xrotation
                }
                JOINT RightEye
                {
                  OFFSET -3.22244 5.361869 7.558234
                  CHANNELS 3 Zrotation Yrotation Xrotation
                }
              }
            }
          }
          JOINT LeftShoulder
          {
            OFFSET 1.621652 23.237164 5.113413
            CHANNELS 3 Zrotation Yrotation Xrotation
            JOINT LeftArm
            {
              OFFSET 14.919846 2e-06 -5.502326
              CHANNELS 3 Zrotation Yrotation Xrotation
              JOINT LeftForeArm
              {
                OFFSET 28.739307 0.0 -0.002588
                CHANNELS 3 Zrotation Yrotation Xrotation
                JOINT LeftHand
                {
                  OFFSET 27.093981 -1e-06 0.002609
                  CHANNELS 3 Zrotation Yrotation Xrotation
                  JOINT LeftHandThumb1
                  {
                    OFFSET 2.276482 -1.392045 3.191413
                    CHANNELS 3 Zrotation Yrotation Xrotation
                    JOINT LeftHandThumb2
                    {
                      OFFSET 4.012836 -1.828127 1.641654
                      CHANNELS 3 Zrotation Yrotation Xrotation
                      JOINT LeftHandThumb3
                      {
                        OFFSET 2.798515 0.0 -3e-06
                        CHANNELS 3 Zrotation Yrotation Xrotation
                        JOINT LeftHandThumbEnd
                        {
                          OFFSET 3.180793 -4e-06 4e-06
                          CHANNELS 3 Zrotation Yrotation Xrotation
                        }
                      }
                    }
                  }
                  JOINT LeftHandIndex1
                  {
                    OFFSET 3.247555 -0.531998 2.296169
                    CHANNELS 3 Zrotation Yrotation Xrotation
                    JOINT LeftHandIndex2
                    {
                      OFFSET 6.364578 0.01206 0.1786
                      CHANNELS 3 Zrotation Yrotation Xrotation
                      JOINT LeftHandIndex3
                      {
                        OFFSET 3.662364 0.0 0.0
                        CHANNELS 3 Zrotation Yrotation Xrotation
                        JOINT LeftHandIndex4
                        {
                          OFFSET 2.329242 4e-06 4e-06
                          CHANNELS 3 Zrotation Yrotation Xrotation
                          JOINT LeftHandIndexEnd
                          {
                            OFFSET 2.759615 -0.180537 -0.113024
                            CHANNELS 3 Zrotation Yrotation Xrotation
                          }
                        }
                      }
                    }
                  }
                  JOINT LeftHandMiddle1
                  {
                    OFFSET 3.163495 0.240981 1.000332
                    CHANNELS 3 Zrotation Yrotation Xrotation
                    JOINT LeftHandMiddle2
                    {
                      OFFSET 6.19078 -0.259278 -1.002548
                      CHANNELS 3 Zrotation Yrotation Xrotation
                      JOINT LeftHandMiddle3
                      {
                        OFFSET 4.35652 -4e-06 -1e-06
                        CHANNELS 3 Zrotation Yrotation Xrotation
                        JOINT LeftHandMiddle4
                        {
                          OFFSET 2.996877 -8e-06 0.0
                          CHANNELS 3 Zrotation Yrotation Xrotation
                          JOINT LeftHandMiddleEnd
                          {
                            OFFSET 2.304287 -0.294569 -0.031741
                            CHANNELS 3 Zrotation Yrotation Xrotation
                          }
                        }
                      }
                    }
                  }
                  JOINT LeftHandRing1
                  {
                    OFFSET 2.882643 -0.053652 -0.322543
                    CHANNELS 3 Zrotation Yrotation Xrotation
                    JOINT LeftHandRing2
                    {
                      OFFSET 5.854541 -0.486202 -1.373841
                      CHANNELS 3 Zrotation Yrotation Xrotation
                      JOINT LeftHandRing3
                      {
                        OFFSET 4.350578 0.0 3e-06
                        CHANNELS 3 Zrotation Yrotation Xrotation
                        JOINT LeftHandRing4
                        {
                          OFFSET 2.651321 7e-06 2e-06
                          CHANNELS 3 Zrotation Yrotation Xrotation
                          JOINT LeftHandRingEnd
                          {
                            OFFSET 1.936105 0.077687 -7.1e-05
                            CHANNELS 3 Zrotation Yrotation Xrotation
                          }
                        }
                      }
                    }
                  }
                  JOINT LeftHandPinky1
                  {
                    OFFSET 2.8655 -0.310005 -1.600378
                    CHANNELS 3 Zrotation Yrotation Xrotation
                    JOINT LeftHandPinky2
                    {
                      OFFSET 5.087849 -1.331141 -1.77123
                      CHANNELS 3 Zrotation Yrotation Xrotation
                      JOINT LeftHandPinky3
                      {
                        OFFSET 3.070974 4e-06 0.0
                        CHANNELS 3 Zrotation Yrotation Xrotation
                        JOINT LeftHandPinky4
                        {
                          OFFSET 1.549672 0.0 1e-06
                          CHANNELS 3 Zrotation Yrotation Xrotation
                          JOINT LeftHandPinkyEnd
                          {
                            OFFSET 1.944893 -0.157802 0.057219
                            CHANNELS 3 Zrotation Yrotation Xrotation
                          }
                        }
                      }
                    }
                  }
                }
              }
            }
          }
          JOINT RightShoulder
          {
            OFFSET -1.380118 23.180309 5.214158
            CHANNELS 3 Zrotation Yrotation Xrotation
            JOINT RightArm
            {
              OFFSET -15.037196 1.2e-05 -5.545604
              CHANNELS 3 Zrotation Yrotation Xrotation
              JOINT RightForeArm
              {
                OFFSET -28.736639 2e-06 -0.002597
                CHANNELS 3 Zrotation Yrotation Xrotation
                JOINT RightHand
                {
                  OFFSET -27.133619 -0.0 0.002613
                  CHANNELS 3 Zrotation Yrotation Xrotation
                  JOINT RightHandThumb1
                  {
                    OFFSET -2.274032 -1.383988 3.163127
                    CHANNELS 3 Zrotation Yrotation Xrotation
                    JOINT RightHandThumb2
                    {
                      OFFSET -4.011429 -1.827466 1.640914
                      CHANNELS 3 Zrotation Yrotation Xrotation
                      JOINT RightHandThumb3
                      {
                        OFFSET -2.794935 -4e-06 -3e-06
                        CHANNELS 3 Zrotation Yrotation Xrotation
                        JOINT RightHandThumbEnd
                        {
                          OFFSET -3.183852 4e-06 1e-06
                          CHANNELS 3 Zrotation Yrotation Xrotation
                        }
                      }
                    }
                  }
                  JOINT RightHandIndex1
                  {
                    OFFSET -3.253266 -0.520057 2.282866
                    CHANNELS 3 Zrotation Yrotation Xrotation
                    JOINT RightHandIndex2
                    {
                      OFFSET -6.341917 0.012471 0.178266
                      CHANNELS 3 Zrotation Yrotation Xrotation
                      JOINT RightHandIndex3
                      {
                        OFFSET -3.654871 -8e-06 -0.0
                        CHANNELS 3 Zrotation Yrotation Xrotation
                        JOINT RightHandIndex4
                        {
                          OFFSET -2.327586 0.0 1e-06
                          CHANNELS 3 Zrotation Yrotation Xrotation
                          JOINT RightHandIndexEnd
                          {
                            OFFSET -2.76179 -0.180656 -0.113078
                            CHANNELS 3 Zrotation Yrotation Xrotation
                          }
                        }
                      }
                    }
                  }
                  JOINT RightHandMiddle1
                  {
                    OFFSET -3.168106 0.246593 1.00103
                    CHANNELS 3 Zrotation Yrotation Xrotation
                    JOINT RightHandMiddle2
                    {
                      OFFSET -6.180828 -0.258836 -1.000895
                      CHANNELS 3 Zrotation Yrotation Xrotation
                      JOINT RightHandMiddle3
                      {
                        OFFSET -4.348901 0.0 -0.0
                        CHANNELS 3 Zrotation Yrotation Xrotation
                        JOINT RightHandMiddle4
                        {
                          OFFSET -3.00024 -4e-06 -2e-06
                          CHANNELS 3 Zrotation Yrotation Xrotation
                          JOINT RightHandMiddleEnd
                          {
                            OFFSET -2.30252 -0.29437 -0.031706
                            CHANNELS 3 Zrotation Yrotation Xrotation
                          }
                        }
                      }
                    }
                  }
                  JOINT RightHandRing1
                  {
                    OFFSET -2.88569 -0.067952 -0.308858
                    CHANNELS 3 Zrotation Yrotation Xrotation
                    JOINT RightHandRing2
                    {
                      OFFSET -5.854198 -0.48613 -1.373731
                      CHANNELS 3 Zrotation Yrotation Xrotation
                      JOINT RightHandRing3
                      {
                        OFFSET -4.33881 -4e-06 -0.0
                        CHANNELS 3 Zrotation Yrotation Xrotation
                        JOINT RightHandRing4
                        {
                          OFFSET -2.654903 -4e-06 4e-06
                          CHANNELS 3 Zrotation Yrotation Xrotation
                          JOINT RightHandRingEnd
                          {
                            OFFSET -1.933568 0.077527 -5.2e-05
                            CHANNELS 3 Zrotation Yrotation Xrotation
                          }
                        }
                      }
                    }
                  }
                  JOINT RightHandPinky1
                  {
                    OFFSET -2.866425 -0.342796 -1.584145
                    CHANNELS 3 Zrotation Yrotation Xrotation
                    JOINT RightHandPinky2
                    {
                      OFFSET -5.091371 -1.332055 -1.772385
                      CHANNELS 3 Zrotation Yrotation Xrotation
                      JOINT RightHandPinky3
                      {
                        OFFSET -3.062664 -4e-06 1e-06
                        CHANNELS 3 Zrotation Yrotation Xrotation
                        JOINT RightHandPinky4
                        {
                          OFFSET -1.546529 4e-06 -2e-06
                          CHANNELS 3 Zrotation Yrotation Xrotation
                          JOINT RightHandPinkyEnd
                          {
                            OFFSET -1.945119 -0.157718 0.057211
                            CHANNELS 3 Zrotation Yrotation Xrotation
                          }
                        }
                      }
                    }
                  }
                }
              }
            }
          }
        }
      }
    }
    JOINT LeftLeg
    {
      OFFSET 10.043214 -8.434526 2.595655
      CHANNELS 3 Zrotation Yrotation Xrotation
      JOINT LeftShin
      {
        OFFSET -1e-06 -43.221752 -0.802913
        CHANNELS 3 Zrotation Yrotation Xrotation
        JOINT LeftFoot
        {
          OFFSET 1e-06 -42.155094 -3.481523
          CHANNELS 3 Zrotation Yrotation Xrotation
          JOINT LeftToeBase
          {
            OFFSET 0.0 -5.059472 13.231529
            CHANNELS 3 Zrotation Yrotation Xrotation
            JOINT LeftToeEnd
            {
              OFFSET -0.009607 -1.647619 6.513017
              CHANNELS 3 Zrotation Yrotation Xrotation
            }
          }
        }
      }
    }
    JOINT RightLeg
    {
      OFFSET -10.047278 -8.29526 2.620317
      CHANNELS 3 Zrotation Yrotation Xrotation
      JOINT RightShin
      {
        OFFSET 1e-06 -43.362206 -0.805556
        CHANNELS 3 Zrotation Yrotation Xrotation
        JOINT RightFoot
        {
          OFFSET 2e-06 -42.117393 -3.478398
          CHANNELS 3 Zrotation Yrotation Xrotation
          JOINT RightToeBase
          {
            OFFSET -0.0 -5.079609 13.284196
            CHANNELS 3 Zrotation Yrotation Xrotation
            JOINT RightToeEnd
            {
              OFFSET 0.009532 -1.634378 6.460591
              CHANNELS 3 Zrotation Yrotation Xrotation
            }
          }
        }
      }
    }
  }
}
MOTION
Frames: 4
Frame Time: 0.03333333333333333
0.0 0.0 0.0 0.0 -0.0 0.0 -0.98403 61.132957 -1.508205 1.871081 1.251467 34.211239 -1.201686 -0.137363 20.628391 -0.970643 -0.005755 6.217358 -1.090835 -0.215748 18.096674 0.677036 3.2485 -28.529621 -0.67428 -1.438064 -3.408738 1.849437 -2.982754 6.890665 7.7e-05 -2.2e-05 6e-06 -0.069519 0.008526 -0.136052 0.788458 -3.788928 -10.763994 -0.931322 3.807097 -10.739539 -0.29603 -20.208536 6.026386 8.576628 -39.462715 -42.380878 4.916418 -73.823296 -4.508406 11.216007 15.399573 5.79919 -5.882042 9.861266 0.702547 -10.936816 -0.360586 7.156217 -1.1e-05 8.774831 -9e-06 -15.770658 18.885414 6.546378 -1.844037 2.498505 -2.507277 -10.163621 4.678965 4.621087 -20.97607 1.1e-05 -3.4e-05 -21.226406 2.451697 -3.594086 -1e-06 -4e-06 2e-06 -1.362702 2.240812 -0.746328 -21.334917 0.584917 3.008301 -13.821231 2e-06 -2.2e-05 -23.887297 -0.249096 -0.839565 -59.897263 2.616699 -0.999951 -0.294048 1.67971 0.833245 -14.218203 0.09321 1.300577 -34.212135 -0.287566 0.967111 -20.033274 0.964519 1.212826 -0.0 -1e-06 0.0 -3.440431 0.788275 0.501634 -15.928151 -3.167328 2.999721 -6.338831 6e-06 -8e-06 -18.123528 3.648176 -4.905745 -5e-06 0.0 -2e-06 3.168655 32.296329 5.515964 -26.179216 41.503952 -42.687168 3.155604 63.845215 3.062298 -19.543789 -12.258665 17.054726 2.243435 -5.25493 -3.180014 14.282776 -0.826639 6.952617 5e-06 -12.690647 -7e-06 16.716377 -17.74148 2.550722 1.66568 -1.955926 -2.878316 4.727834 -4.170612 4.993888 11.020598 -2e-06 -3.3e-05 12.10922 -3.735733 -2.866889 -1e-06 0.0 1e-06 1.292018 -1.928586 -1.498118 14.80018 0.567488 3.86558 14.242682 -1.341739 -6.660742 19.632246 0.143959 -0.648374 50.394928 -1.034599 -6.189317 0.35307 -1.511199 -0.031976 20.222847 3.684349 2.316606 18.787394 1.6e-05 -6e-05 10.751687 -0.479863 1.3979 0.0 3e-06 0.0 3.27391 0.305867 -0.580188 21.486818 11.830458 2.266158 8.162967 1e-06 -2.3e-05 18.399286 -3.798941 -4.940719 3e-06 2e-06 -0.0 -2.106624 21.123444 -108.697891 -0.916203 -0.022974 103.267242 -5.253047 -14.710945 -26.757292 1.642114 -1.776196 -0.894327 0.0 0.0 1e-06 7.631269 -19.354597 -112.437149 -0.095623 -0.061821 105.888161 -0.629125 6.518876 -28.766329 -1.437779 0.910747 -0.669987 0.0 -0.0 -4e-06 
0.0 0.0 0.0 0.0 -0.0 0.0 -0.967564 61.184925 -1.518109 1.89065 1.18799 34.215076 -1.207373 -0.138113 20.667223 -0.966707 0.00913 6.22684 -1.123409 -0.226446 18.104471 0.619097 3.250005 -28.61113 -0.673717 -1.482873 -3.419007 1.80947 -2.939184 6.833419 7.7e-05 -2.2e-05 7e-06 -0.062358 0.00246 -0.137212 0.798011 -3.790051 -10.751678 -0.92681 3.79629 -10.729618 -0.304949 -20.204561 5.988161 8.6024 -39.482922 -42.617828 4.784099 -73.854454 -4.386391 11.229655 15.351786 5.735096 -5.88207 9.861373 0.702545 -10.936911 -0.360613 7.156199 2e-06 8.774793 3e-06 -15.753377 18.868538 6.56415 -1.844021 2.498498 -2.507275 -10.163548 4.678916 4.621112 -20.975927 -1.4e-05 9e-06 -21.226196 2.45166 -3.59398 0.0 -6e-06 -1e-06 -1.362662 2.240756 -0.746315 -21.33482 0.584928 3.008322 -13.821145 -5e-06 1.3e-05 -23.887051 -0.249091 -0.83945 -59.903931 2.613054 -0.974655 -0.294002 1.679632 0.833263 -14.218166 0.093252 1.300577 -34.211895 -0.28756 0.967196 -20.033165 0.96455 1.212863 -2e-06 -0.0 -1e-06 -3.440319 0.788156 0.501682 -15.928172 -3.167238 2.999686 -6.338798 -1e-06 7e-06 -18.123358 3.648157 -4.905645 -4e-06 2e-06 -3e-06 3.124683 32.380581 5.503117 -26.07653 41.476017 -42.704914 3.143051 63.875473 3.015244 -19.633028 -12.06059 17.023092 2.243573 -5.255198 -3.180319 14.282986 -0.826513 6.9524 -7e-06 -12.690528 7e-06 16.617298 -17.71261 2.593734 1.665652 -1.955918 -2.878283 4.727755 -4.170552 4.993945 11.020443 6e-06 1.7e-05 12.108921 -3.73567 -2.866729 2e-06 1e-06 1e-06 1.291956 -1.928499 -1.49806 14.800043 0.567425 3.865618 14.24245 -1.341726 -6.6606 19.631769 0.143936 -0.648172 50.369701 -1.038042 -6.156559 0.352995 -1.511082 -0.031912 20.222679 3.684231 2.316637 18.78714 -2e-06 3.6e-05 10.751576 -0.47988 1.39792 -1e-06 1e-06 -2e-06 3.2737 0.306042 -0.580041 21.486759 11.83023 2.266098 8.16288 0.0 1.7e-05 18.398941 -3.798986 -4.940482 3e-06 0.0 -1e-06 -2.162666 21.13829 -108.663895 -0.896327 -0.016465 103.197762 -5.240692 -14.720067 -26.72369 1.640338 -1.777126 -0.901049 0.0 0.0 2e-06 7.550367 -19.351255 -112.403664 -0.097928 -0.060742 105.794907 -0.643325 6.620591 -28.703236 -1.436164 0.91853 -0.702967 0.0 1e-06 -2e-06 
0.0 0.0 0.0 0.0 -0.0 0.0 -0.94138 61.224789 -1.534411 1.911477 1.122335 34.234367 -1.213148 -0.136921 20.701777 -0.962715 0.018087 6.243896 -1.146414 -0.234515 18.100433 0.547674 3.250288 -28.700035 -0.678679 -1.515393 -3.423252 1.754667 -2.880579 6.778479 7.7e-05 -2.2e-05 7e-06 -0.057406 -0.002443 -0.139605 0.804067 -3.790077 -10.743016 -0.923254 3.786837 -10.721615 -0.30818 -20.218018 5.946315 8.587957 -39.485294 -42.955254 4.495022 -73.950439 -4.127086 11.299493 15.318183 5.838351 -5.881998 9.861493 0.702462 -10.936915 -0.36061 7.156192 -5e-06 8.774782 1.4e-05 -15.730598 18.845512 6.582056 -1.844022 2.498494 -2.507269 -10.163541 4.678918 4.621119 -20.975885 5e-06 -2e-05 -21.226151 2.451667 -3.593993 0.0 -5e-06 1e-06 -1.362672 2.240747 -0.746306 -21.334791 0.584945 3.008291 -13.821128 5e-06 -9e-06 -23.887011 -0.249088 -0.839503 -59.932056 2.603123 -0.953945 -0.294019 1.679622 0.833276 -14.218137 0.093272 1.300558 -34.21183 -0.287548 0.967129 -20.033121 0.964536 1.212817 -1e-06 1e-06 -0.0 -3.440328 0.788145 0.5017 -15.928144 -3.167222 2.999656 -6.33879 5e-06 -1e-06 -18.12335 3.648175 -4.905672 -4e-06 1e-06 -3e-06 3.028706 32.455643 5.453131 -25.975824 41.421101 -42.630634 3.038889 63.884933 2.892509 -19.679298 -11.905973 16.994661 2.243594 -5.255134 -3.180078 14.282944 -0.826599 6.952543 -8e-06 -12.69057 2.3e-05 16.55558 -17.720438 2.646522 1.665655 -1.955922 -2.878299 4.727781 -4.170566 4.993929 11.020503 4e-06 1.8e-05 12.109032 -3.73569 -2.866761 -2e-06 -2e-06 2e-06 1.291969 -1.928522 -1.498082 14.800091 0.567448 3.865608 14.242534 -1.341724 -6.660635 19.631966 0.143925 -0.648207 50.397736 -1.049471 -6.135352 0.353014 -1.511109 -0.031931 20.222738 3.684271 2.316624 18.787249 -1.3e-05 3.4e-05 10.751632 -0.479885 1.397932 -0.0 -2e-06 -2e-06 3.273757 0.305999 -0.580075 21.486767 11.830304 2.266084 8.162924 -9e-06 1.6e-05 18.399105 -3.799003 -4.94053 4e-06 -4e-06 0.0 -2.222567 21.146946 -108.651901 -0.883803 -0.013446 103.136375 -5.230052 -14.739048 -26.692419 1.639645 -1.791399 -0.919632 -0.0 0.0 -1e-06 7.485123 -19.353643 -112.398773 -0.10384 -0.063501 105.706413 -0.666097 6.720427 -28.643122 -1.434467 0.9144 -0.742719 0.0 -0.0 -2e-06 
0.0 0.0 0.0 0.0 -0.0 0.0 -0.905542 61.253006 -1.558697 1.93609 1.058123 34.265583 -1.206705 -0.132672 20.726292 -0.961075 0.020953 6.261355 -1.164591 -0.236953 18.103937 0.453205 3.246106 -28.803305 -0.670923 -1.535032 -3.421102 1.67707 -2.819809 6.740702 7.7e-05 -2.2e-05 4e-06 -0.059571 -0.002335 -0.143926 0.804433 -3.788564 -10.746991 -0.928231 3.785883 -10.726195 -0.315728 -20.259821 5.923795 8.586662 -39.465122 -43.346611 4.180564 -74.060638 -3.845974 11.393831 15.260957 6.023637 -5.882041 9.86145 0.702331 -10.936905 -0.360591 7.156134 7e-06 8.774795 7e-06 -15.714708 18.834858 6.609166 -1.84402 2.498496 -2.507262 -10.163535 4.678906 4.621123 -20.975889 -2.9e-05 2e-06 -21.226133 2.451639 -3.59396 0.0 -7e-06 -2e-06 -1.362656 2.240754 -0.746291 -21.334806 0.584911 3.008314 -13.821127 -1.8e-05 7e-06 -23.886993 -0.249114 -0.839444 -59.961884 2.609768 -0.933675 -0.293992 1.679627 0.833288 -14.218157 0.093244 1.300569 -34.211826 -0.287593 0.967178 -20.033117 0.964522 1.212854 0.0 4e-06 -0.0 -3.440297 0.788142 0.501717 -15.928183 -3.167243 2.999666 -6.338786 -4e-06 3e-06 -18.123316 3.648144 -4.905636 -4e-06 3e-06 -3e-06 2.899929 32.540573 5.396099 -25.89201 41.309505 -42.522854 2.924992 63.89521 2.786414 -19.721992 -11.809333 16.918798 2.243533 -5.255188 -3.180418 14.282951 -0.826494 6.952357 -5e-06 -12.690535 -9e-06 16.548697 -17.749823 2.686211 1.665655 -1.955918 -2.878277 4.72776 -4.170557 4.993941 11.020447 8e-06 6e-06 12.108941 -3.735674 -2.866754 -2e-06 1e-06 0.0 1.291964 -1.928502 -1.498063 14.800045 0.56743 3.865615 14.242462 -1.341728 -6.660612 19.631775 0.143956 -0.648202 50.439651 -1.075029 -6.13865 0.353002 -1.511088 -0.031913 20.222689 3.68424 2.316637 18.787138 1.5e-05 1.4e-05 10.751568 -0.479862 1.39791 -0.0 -3e-06 -0.0 3.273714 0.306033 -0.580052 21.486765 11.830236 2.266119 8.162871 3e-06 9e-06 18.398922 -3.79896 -4.940514 5e-06 -1e-06 1e-06 -2.273238 21.133471 -108.666336 -0.872751 -0.014483 103.099472 -5.223464 -14.746071 -26.651976 1.640273 -1.814785 -0.958077 0.0 0.0 1e-06 7.430708 -19.368496 -112.420998 -0.111848 -0.068301 105.634529 -0.71709 6.846482 -28.600744 -1.433379 0.904813 -0.799998 0.0 -0.0 -0.0 
